<svg width="50" height="50" viewBox="0 0 50 50" fill="none" xmlns="http://www.w3.org/2000/svg">
<rect width="50" height="50" rx="5" fill="#2ABB94"/>
<path d="M22.9166 27.0833H12.5C11.9097 27.0833 11.4149 26.8837 11.0156 26.4844C10.6163 26.0851 10.4166 25.5903 10.4166 25C10.4166 24.4097 10.6163 23.9149 11.0156 23.5156C11.4149 23.1163 11.9097 22.9167 12.5 22.9167H22.9166V12.5C22.9166 11.9097 23.1163 11.4149 23.5156 11.0156C23.9149 10.6163 24.4097 10.4167 25 10.4167C25.5902 10.4167 26.085 10.6163 26.4843 11.0156C26.8836 11.4149 27.0833 11.9097 27.0833 12.5V22.9167H37.5C38.0902 22.9167 38.585 23.1163 38.9843 23.5156C39.3836 23.9149 39.5833 24.4097 39.5833 25C39.5833 25.5903 39.3836 26.0851 38.9843 26.4844C38.585 26.8837 38.0902 27.0833 37.5 27.0833H27.0833V37.5C27.0833 38.0903 26.8836 38.5851 26.4843 38.9844C26.085 39.3837 25.5902 39.5833 25 39.5833C24.4097 39.5833 23.9149 39.3837 23.5156 38.9844C23.1163 38.5851 22.9166 38.0903 22.9166 37.5V27.0833Z" fill="#0A0A0F"/>
</svg>
