<svg width="41" height="41" viewBox="0 0 41 41" fill="none" xmlns="http://www.w3.org/2000/svg">
<path d="M8.54167 35.875C7.60208 35.875 6.79774 35.5405 6.12865 34.8714C5.45955 34.2023 5.125 33.3979 5.125 32.4583V8.54167C5.125 7.60208 5.45955 6.79774 6.12865 6.12865C6.79774 5.45955 7.60208 5.125 8.54167 5.125H27.6323C28.0878 5.125 28.522 5.21042 28.9349 5.38125C29.3477 5.55208 29.7108 5.7941 30.024 6.10729L34.8927 10.976C35.2059 11.2892 35.4479 11.6523 35.6187 12.0651C35.7896 12.478 35.875 12.9122 35.875 13.3677V32.4583C35.875 33.3979 35.5405 34.2023 34.8714 34.8714C34.2023 35.5405 33.3979 35.875 32.4583 35.875H8.54167ZM32.4583 13.4104L27.5896 8.54167H8.54167V32.4583H32.4583V13.4104ZM20.5 30.75C21.9236 30.75 23.1337 30.2517 24.1302 29.2552C25.1267 28.2587 25.625 27.0486 25.625 25.625C25.625 24.2014 25.1267 22.9913 24.1302 21.9948C23.1337 20.9983 21.9236 20.5 20.5 20.5C19.0764 20.5 17.8663 20.9983 16.8698 21.9948C15.8733 22.9913 15.375 24.2014 15.375 25.625C15.375 27.0486 15.8733 28.2587 16.8698 29.2552C17.8663 30.2517 19.0764 30.75 20.5 30.75ZM11.9583 17.0833H23.9167C24.4007 17.0833 24.8064 16.9196 25.1339 16.5922C25.4613 16.2648 25.625 15.859 25.625 15.375V11.9583C25.625 11.4743 25.4613 11.0686 25.1339 10.7411C24.8064 10.4137 24.4007 10.25 23.9167 10.25H11.9583C11.4743 10.25 11.0686 10.4137 10.7411 10.7411C10.4137 11.0686 10.25 11.4743 10.25 11.9583V15.375C10.25 15.859 10.4137 16.2648 10.7411 16.5922C11.0686 16.9196 11.4743 17.0833 11.9583 17.0833ZM8.54167 13.4104V32.4583V8.54167V13.4104Z" fill="#F3F3F7"/>
</svg>
