<svg width="41" height="41" viewBox="0 0 41 41" fill="none" xmlns="http://www.w3.org/2000/svg">
<path d="M20.5 26.6073C20.2722 26.6073 20.0587 26.5717 19.8594 26.5006C19.6601 26.4294 19.475 26.3084 19.3042 26.1375L13.1542 19.9875C12.8125 19.6459 12.6488 19.2473 12.663 18.7917C12.6773 18.3362 12.841 17.9375 13.1542 17.5959C13.4958 17.2542 13.9016 17.0763 14.3713 17.062C14.8411 17.0478 15.2469 17.2115 15.5885 17.5532L18.7917 20.7563V8.54171C18.7917 8.05768 18.9554 7.65195 19.2828 7.32452C19.6102 6.99709 20.016 6.83337 20.5 6.83337C20.984 6.83337 21.3898 6.99709 21.7172 7.32452C22.0446 7.65195 22.2083 8.05768 22.2083 8.54171V20.7563L25.4115 17.5532C25.7531 17.2115 26.1588 17.0478 26.6286 17.062C27.0984 17.0763 27.5042 17.2542 27.8458 17.5959C28.159 17.9375 28.3227 18.3362 28.337 18.7917C28.3512 19.2473 28.1875 19.6459 27.8458 19.9875L21.6958 26.1375C21.525 26.3084 21.3399 26.4294 21.1406 26.5006C20.9413 26.5717 20.7278 26.6073 20.5 26.6073ZM10.25 34.1667C9.31041 34.1667 8.50607 33.8322 7.83697 33.1631C7.16788 32.494 6.83333 31.6896 6.83333 30.75V27.3334C6.83333 26.8493 6.99704 26.4436 7.32447 26.1162C7.6519 25.7888 8.05763 25.625 8.54166 25.625C9.02569 25.625 9.43142 25.7888 9.75885 26.1162C10.0863 26.4436 10.25 26.8493 10.25 27.3334V30.75H30.75V27.3334C30.75 26.8493 30.9137 26.4436 31.2411 26.1162C31.5686 25.7888 31.9743 25.625 32.4583 25.625C32.9424 25.625 33.3481 25.7888 33.6755 26.1162C34.0029 26.4436 34.1667 26.8493 34.1667 27.3334V30.75C34.1667 31.6896 33.8321 32.494 33.163 33.1631C32.4939 33.8322 31.6896 34.1667 30.75 34.1667H10.25Z" fill="#F3F3F7"/>
</svg>
