<svg width="41" height="41" viewBox="0 0 41 41" fill="none" xmlns="http://www.w3.org/2000/svg">
<path d="M18.7917 25.326V30.75C18.7917 31.234 18.9554 31.6397 19.2828 31.9671C19.6102 32.2946 20.016 32.4583 20.5 32.4583C20.984 32.4583 21.3898 32.2946 21.7172 31.9671C22.0446 31.6397 22.2083 31.234 22.2083 30.75V25.326L23.7458 26.8635C23.9167 27.0343 24.1088 27.1625 24.3224 27.2479C24.5359 27.3333 24.7495 27.3689 24.963 27.3546C25.1766 27.3404 25.383 27.2906 25.5823 27.2052C25.7816 27.1198 25.9667 26.9916 26.1375 26.8208C26.4507 26.4791 26.6144 26.0805 26.6286 25.625C26.6429 25.1694 26.4792 24.7708 26.1375 24.4291L21.6958 19.9875C21.525 19.8166 21.3399 19.6956 21.1406 19.6244C20.9413 19.5533 20.7278 19.5177 20.5 19.5177C20.2722 19.5177 20.0587 19.5533 19.8594 19.6244C19.6601 19.6956 19.475 19.8166 19.3042 19.9875L14.8625 24.4291C14.5208 24.7708 14.3571 25.1694 14.3713 25.625C14.3856 26.0805 14.5635 26.4791 14.9052 26.8208C15.2469 27.134 15.6455 27.2977 16.101 27.3119C16.5566 27.3262 16.9552 27.1625 17.2969 26.8208L18.7917 25.326ZM10.25 37.5833C9.31041 37.5833 8.50607 37.2487 7.83697 36.5796C7.16788 35.9105 6.83333 35.1062 6.83333 34.1666V6.83329C6.83333 5.89371 7.16788 5.08937 7.83697 4.42027C8.50607 3.75117 9.31041 3.41663 10.25 3.41663H22.5073C22.9628 3.41663 23.397 3.50204 23.8099 3.67288C24.2227 3.84371 24.5858 4.08572 24.899 4.39892L33.1844 12.6843C33.4976 12.9975 33.7396 13.3605 33.9104 13.7734C34.0812 14.1862 34.1667 14.6204 34.1667 15.076V34.1666C34.1667 35.1062 33.8321 35.9105 33.163 36.5796C32.4939 37.2487 31.6896 37.5833 30.75 37.5833H10.25ZM22.2083 13.6666V6.83329H10.25V34.1666H30.75V15.375H23.9167C23.4326 15.375 23.0269 15.2112 22.6995 14.8838C22.372 14.5564 22.2083 14.1507 22.2083 13.6666Z" fill="#F3F3F7"/>
</svg>
