<svg width="16" height="16" viewBox="0 0 16 16" fill="none" xmlns="http://www.w3.org/2000/svg">
<rect x="1.28244" y="11.3588" width="4.58015" height="2.1374" fill="#2ABB94"/>
<rect x="5.86259" y="11.3588" width="4.58015" height="2.1374" transform="rotate(-90 5.86259 11.3588)" fill="#2ABB94"/>
<rect x="8" y="9.16028" width="4.58015" height="2.1374" transform="rotate(-90 8 9.16028)" fill="#2ABB94"/>
<rect x="10.1374" y="2.44275" width="4.58015" height="2.1374" fill="#2ABB94"/>
<path d="M11.35 11.8334C11.1944 11.9889 11.0111 12.0611 10.8 12.05C10.5889 12.0389 10.4167 11.9667 10.2833 11.8334C10.1278 11.6889 10.0528 11.5056 10.0583 11.2834C10.0639 11.0611 10.1389 10.8834 10.2833 10.75L13.05 7.98336L10.2833 5.25003C10.1389 5.09447 10.0694 4.91114 10.075 4.70003C10.0806 4.48892 10.1556 4.30558 10.3 4.15003C10.4556 4.00558 10.6417 3.93336 10.8583 3.93336C11.075 3.93336 11.2611 4.00558 11.4167 4.15003L14.6667 7.43336C14.8222 7.58892 14.9 7.7667 14.9 7.9667C14.9 8.1667 14.8222 8.34447 14.6667 8.50003L11.35 11.8334ZM4.63333 11.7667L1.33333 8.50003C1.17778 8.34447 1.1 8.1667 1.1 7.9667C1.1 7.7667 1.17778 7.58892 1.33333 7.43336L4.65 4.10003C4.79445 3.95558 4.97778 3.88336 5.2 3.88336C5.42222 3.88336 5.60556 3.95003 5.75 4.08336C5.89445 4.23892 5.96667 4.42503 5.96667 4.6417C5.96667 4.85836 5.89445 5.03336 5.75 5.1667L2.98333 7.95003L5.71667 10.6834C5.85 10.8389 5.91945 11.0223 5.925 11.2334C5.93056 11.4445 5.86111 11.6223 5.71667 11.7667C5.56111 11.9111 5.37778 11.9834 5.16667 11.9834C4.95556 11.9834 4.77778 11.9111 4.63333 11.7667Z" fill="#F3F3F7"/>
</svg>
