<svg width="30" height="30" viewBox="0 0 30 30" fill="none" xmlns="http://www.w3.org/2000/svg">
<path fill-rule="evenodd" clip-rule="evenodd" d="M8 8.70421C6.89543 8.70421 6 9.59964 6 10.7042V20.906C6 22.0105 6.89543 22.906 8 22.906H18.2018C19.3063 22.906 20.2018 22.0105 20.2018 20.906V10.7042C20.2018 9.59964 19.3063 8.70421 18.2018 8.70421H8ZM9 11C8.44772 11 8 11.4477 8 12V20C8 20.5523 8.44772 21 9 21H17C17.5523 21 18 20.5523 18 20V12C18 11.4477 17.5523 11 17 11H9Z" fill="#F3F3F7"/>
<path fill-rule="evenodd" clip-rule="evenodd" d="M9.26758 7H21C21.5523 7 22 7.44772 22 8V20.0361C22.7073 19.7279 23.2018 19.0226 23.2018 18.2018V8C23.2018 6.89543 22.3063 6 21.2018 6H11C10.2597 6 9.61339 6.4022 9.26758 7Z" fill="#F3F3F7"/>
</svg>
