<svg width="50" height="50" viewBox="0 0 50 50" fill="none" xmlns="http://www.w3.org/2000/svg">
<path d="M33.3333 39.5833C32.1875 39.5833 31.2066 39.1754 30.3906 38.3594C29.5747 37.5434 29.1667 36.5625 29.1667 35.4167V14.5833C29.1667 13.4375 29.5747 12.4566 30.3906 11.6406C31.2066 10.8247 32.1875 10.4167 33.3333 10.4167C34.4792 10.4167 35.4601 10.8247 36.276 11.6406C37.092 12.4566 37.5 13.4375 37.5 14.5833V35.4167C37.5 36.5625 37.092 37.5434 36.276 38.3594C35.4601 39.1754 34.4792 39.5833 33.3333 39.5833ZM16.6667 39.5833C15.5208 39.5833 14.5399 39.1754 13.724 38.3594C12.908 37.5434 12.5 36.5625 12.5 35.4167V14.5833C12.5 13.4375 12.908 12.4566 13.724 11.6406C14.5399 10.8247 15.5208 10.4167 16.6667 10.4167C17.8125 10.4167 18.7934 10.8247 19.6094 11.6406C20.4253 12.4566 20.8333 13.4375 20.8333 14.5833V35.4167C20.8333 36.5625 20.4253 37.5434 19.6094 38.3594C18.7934 39.1754 17.8125 39.5833 16.6667 39.5833Z" fill="#F3F3F7"/>
</svg>
