<svg width="50" height="50" viewBox="0 0 50 50" fill="none" xmlns="http://www.w3.org/2000/svg">
<path d="M16.6666 35.7813V14.2188C16.6666 13.6285 16.875 13.1337 17.2916 12.7344C17.7083 12.3351 18.1944 12.1354 18.75 12.1354C18.9236 12.1354 19.1059 12.1615 19.2968 12.2135C19.4878 12.2656 19.6701 12.3438 19.8437 12.4479L36.8229 23.2292C37.1354 23.4375 37.3698 23.6979 37.526 24.0104C37.6823 24.3229 37.7604 24.6528 37.7604 25C37.7604 25.3472 37.6823 25.6771 37.526 25.9896C37.3698 26.3021 37.1354 26.5625 36.8229 26.7708L19.8437 37.5521C19.6701 37.6563 19.4878 37.7344 19.2968 37.7865C19.1059 37.8385 18.9236 37.8646 18.75 37.8646C18.1944 37.8646 17.7083 37.6649 17.2916 37.2656C16.875 36.8663 16.6666 36.3715 16.6666 35.7813Z" fill="#F3F3F7"/>
</svg>
