<svg width="50" height="50" viewBox="0 0 50 50" fill="none" xmlns="http://www.w3.org/2000/svg">
<path d="M21.0938 45.8333C20.573 45.8333 20.1216 45.6597 19.7396 45.3125C19.3577 44.9653 19.132 44.5313 19.0626 44.0104L18.4376 39.1667C17.9862 38.9931 17.5608 38.7847 17.1615 38.5417C16.7622 38.2986 16.3716 38.0382 15.9896 37.7604L11.4584 39.6354C10.9723 39.8438 10.4862 39.8698 10.0001 39.7135C9.51394 39.5573 9.132 39.2535 8.85422 38.8021L5.00005 32.0833C4.72227 31.6319 4.63547 31.1458 4.73964 30.625C4.8438 30.1042 5.10422 29.6875 5.52089 29.375L9.42714 26.4063C9.39241 26.1632 9.37505 25.9288 9.37505 25.7031V24.2969C9.37505 24.0712 9.39241 23.8368 9.42714 23.5938L5.52089 20.625C5.10422 20.3125 4.8438 19.8958 4.73964 19.375C4.63547 18.8542 4.72227 18.3681 5.00005 17.9167L8.85422 11.1979C9.132 10.7465 9.51394 10.4427 10.0001 10.2865C10.4862 10.1302 10.9723 10.1563 11.4584 10.3646L15.9896 12.2396C16.3716 11.9618 16.7709 11.7014 17.1876 11.4583C17.6042 11.2153 18.0209 11.0069 18.4376 10.8333L19.0626 5.98959C19.132 5.46875 19.3577 5.03473 19.7396 4.68751C20.1216 4.34028 20.573 4.16667 21.0938 4.16667H28.9063C29.4271 4.16667 29.8785 4.34028 30.2605 4.68751C30.6424 5.03473 30.8681 5.46875 30.9376 5.98959L31.5626 10.8333C32.0139 11.0069 32.4393 11.2153 32.8386 11.4583C33.2379 11.7014 33.6285 11.9618 34.0105 12.2396L38.5417 10.3646C39.0278 10.1563 39.5139 10.1302 40.0001 10.2865C40.4862 10.4427 40.8681 10.7465 41.1459 11.1979L45.0001 17.9167C45.2778 18.3681 45.3646 18.8542 45.2605 19.375C45.1563 19.8958 44.8959 20.3125 44.4792 20.625L40.573 23.5938C40.6077 23.8368 40.6251 24.0712 40.6251 24.2969V25.7031C40.6251 25.9288 40.5903 26.1632 40.5209 26.4063L44.4271 29.375C44.8438 29.6875 45.1042 30.1042 45.2084 30.625C45.3126 31.1458 45.2257 31.6319 44.948 32.0833L41.0938 38.75C40.816 39.2014 40.4254 39.5139 39.9219 39.6875C39.4185 39.8611 38.9237 39.8438 38.4376 39.6354L34.0105 37.7604C33.6285 38.0382 33.2292 38.2986 32.8126 38.5417C32.3959 38.7847 31.9792 38.9931 31.5626 39.1667L30.9376 44.0104C30.8681 44.5313 30.6424 44.9653 30.2605 45.3125C29.8785 45.6597 29.4271 45.8333 28.9063 45.8333H21.0938ZM25.1042 32.2917C27.1181 32.2917 28.8369 31.5799 30.2605 30.1563C31.6841 28.7326 32.3959 27.0139 32.3959 25C32.3959 22.9861 31.6841 21.2674 30.2605 19.8438C28.8369 18.4201 27.1181 17.7083 25.1042 17.7083C23.0556 17.7083 21.3282 18.4201 19.9219 19.8438C18.5157 21.2674 17.8126 22.9861 17.8126 25C17.8126 27.0139 18.5157 28.7326 19.9219 30.1563C21.3282 31.5799 23.0556 32.2917 25.1042 32.2917Z" fill="#F3F3F7"/>
</svg>
